<?xml version="1.0" encoding="UTF-8"?>
<svg id="_图层_2" xmlns="http://www.w3.org/2000/svg" version="1.1" viewBox="0 0 638.2 537.4">
  <!-- Generator: Adobe Illustrator 29.5.1, SVG Export Plug-In . SVG Version: 2.1.0 Build 141)  -->
  <path d="M638.1,402.1c-11.4,21.3-23.3,25.9-45,14.5-37.2-19.4-68-59.4-77.7-100.3-.6-2.6-1.3-13.2-2.8-13.2h-19.5l-.5,66c2.4,4.8,12.2-1.8,16.5-2.5,23.2-4.2,33.8,22,17.5,36.5-8,7.1-27.1,13.3-37.7,16.3-12.4,3.5-24,7-35.7-.9-21.1-14.2-9.7-39.7-8.1-59.9,2.8-35.7.2-73.2,0-108.9-.1-15.2-2.2-53.3,3.6-65.4,12.2-25.4,37.2-15.6,59.4-19.1-1.3-11.4-4.2-23.4,7.3-30.2,15.4-9,33.6-.9,39,15.4,1.1,3.2,2.6,14.3,4.7,15.3,12.5,1.5,24-1.3,36.3,2.7,19.6,6.4,21.9,19.5,22.8,38.2s.8,47.2-1,66c-.9,8.9-7,17.9-14.3,22.7-16.6,11.1-31.8,6.6-50.2,8.8-1.4.2-1.8-.5-1.4,1.4.7,3.2,4.1,10.1,5.7,13.3.8,1.6,6.6,11.9,7.2,12.3.8.7,1.5-.2,2-.6,2.2-1.7,4.9-5.3,7.5-7.4,11.2-8.8,24.7-20.1,38.5-9.5,14.1,10.8,11.4,25.3-1.5,35.5-4.7,3.7-10.1,4.6-13.8,7.1-5.5,3.7,8.8,8.1,11.4,9.4,11.8,5.9,24.9,10.2,30,23.5v13h0ZM568.8,263.8c1.1-.9,2.1-3.7,2.3-5.2,1.1-9.2,1.1-36.8,0-46.1-.3-2.5-2.3-7.3-4.5-8.5-1.5-.9-12.3-1.8-15-2-14.5-.8-39-1.2-53,1.1-5.2.9-7.2,6.9-7.6,11.4-1.5,16.3,1.4,34.2,1,50.5,21.7-1.9,45.2,2.6,66.5,1,2.3-.2,8.5-1,10.2-2.3h0Z"/>
  <path d="M.1,395.1c6.2-21.2,29.2-20.7,46.8-26.7,27.1-9.3,53.7-25.6,64.6-53.4,5.5-13.9,2.7-32.2,19.2-38.8,12.2-4.9,29.6.7,32.1,14.6,3,16.8-4.6,18.3,8.7,34.3,16.9,20.2,45.2,32.7,70.1,39.9,19.3,5.6,48.4,5.6,44.4,34.5-1.2,8.6-13,20.9-21.6,22.4-13.5,2.2-29.8-3.4-42.5-8-27.4-9.9-51.6-24.1-71.8-45.2-1.3-1.4-6-8.9-7.9-7.5-9.1,14.8-24.9,26.8-39.7,35.8-17.3,10.5-41.9,21.7-61.5,26.5-19.3,4.7-31,1.3-40.8-16.3v-12h0Z"/>
  <path d="M318.1.1c16.3,6.8,24.7,30.1,29.5,46,5.5,18.4,12.5,60.2,9.5,78.4-2.4,14.1-22.7,13.3-25.7-.2-1.7-7.5.3-21.3-.2-29.8-.9-16.4-6.1-42.4-12.5-57.5-1-2.4-4.5-10.9-6.9-11-1.6,0-10.7,7.8-12.6,9.5-13.3,12-25.8,28.5-35.4,43.6-1.7,2.7-4.7,11.1-7.3,11.8-2.2.6-18.2-6.1-22.5-7.2-17.8-4.6-28.1-4.5-45.6,1.1-7.8,2.5-14.8,6.7-22.6,9.1-12.7-18.3-23.9-38.4-39.1-54.9-2.9-3.2-9.5-11.1-13.9-10-.7.2-5.1,10-5.7,11.5-6.4,16-11,38.8-12,56-.5,8.3.9,18.1,0,26-.8,6.7-8.9,11.3-15.3,10.2-12.3-2-12-15.7-11.8-25.3.6-23.4,12.7-80.9,29.6-97.4,4.4-4.3,11.5-8.5,17.7-7.8,15.9,1.9,42.6,35.5,51.6,48.5,3.4,5,6,10.5,9.7,15.3,12.2-7.2,28.8-10.2,42.9-8.8,4.6.4,22.1,6,24.4,4.7.9-.6,10.1-15.6,12.2-18.3,3.8-4.7,10.9-11.9,15.3-16.2,11.2-10.9,23.4-20.9,37.6-27.4h9Z"/>
  <path d="M394.1,537.1c-2.1.2-5.9.2-8,0-42.6-4.9-42-79.8-5-86.5,31.7-5.8,46,16.2,45.5,45-.3,21.1-9.8,38.9-32.4,41.5h0ZM395.8,475.4c-6.3-7-12.7,1.2-13.6,8.3-1,7.5-1.9,32.1,11.2,28.2,7.9-2.4,7.3-31,2.4-36.5h0Z"/>
  <path d="M386.1,166.1c9.9-15.5,23.5-32.4,42.5-17,24.7,20.1-5.4,41.2-16.5,58.4,13.2,30,17.3,65.3,18,98,1.1,46.7-1.1,122.4-66.5,119.6-18.9-.8-35.7-17.8-25.8-36.7,6.8-12.9,21.2-6.6,28.7-13.3,10.1-9,11.7-42.8,13.5-56-13.5,11-32,33.5-49.6,16.6-25.5-24.3,16.7-44.5,31.7-58.1,3.9-3.5,13.1-12.2,13.9-17.1,1.2-7.1-2.5-16.2-3-23.4-13.7,6.3-19.2,18-36.4,15.9-12.2-1.5-20.1-19-15-28.8,4.2-8,30.4-25.3,31.3-28.8,1-3.8-19.8-24.3-22.2-29.4-2.9-12.4,8.7-22,20.1-23.6,16.6-2.3,24.1,15.1,35.2,23.7h0Z"/>
  <path d="M29.5,237.5c2.4-2.3,9.7-4.1,13.1-4.4h170c9.4-.9,12.7-3.9,13.6-13.4.6-6.6.9-23.8-.1-30-1.3-8.2-7.4-9.1-14.4-9.6-57.8-3.9-119.8,3-178.1,0-30.9-5.7-18.7-41.8,9-40.1,62.7,3.4,129.9-4.4,192,0,46.3,3.3,40.7,37.1,39.5,72.4-.5,13.9,2.3,25.4-4.9,38.1-7.2,12.7-19,18.5-33.5,19.5-42.7,3-92-.5-135-1.1-18.2-.3-43.9,2.3-61,0-15.2-2.1-21.3-21.1-10.2-31.6h0Z"/>
  <path d="M55.8,191.4l141.7-.2c18.7,3.6,18.8,29.8,0,31.9-12.7,1.5-26.4-.9-39-1-34.6-.4-69.3.4-103.9,0-16.6-4.5-15.2-26.3,1.1-30.7h0Z"/>
  <path d="M269.7,531.8c-3.6,5.1-15,5.8-20.1,2.4-4.6-3-6.5-11.9-7.7-12.8-2.3-1.6-23.7-1-24.7-.1-.2.2-.8,3.6-1.5,5-8.4,15.4-34.7,13.8-28.9-6.9,9.6-18,14.7-40.6,23.6-58.4,3.3-6.6,6.8-10.4,14.5-11.5,14.1-2,19.7,3.5,25.2,15.2,6,12.8,16.3,36.6,20.3,49.7,2.1,7.1,4.1,10.6-.7,17.4h0ZM235.1,498.1c-2.1-5.5-3-12.7-7-17-.2,5.9-3.8,11-3,17h10Z"/>
  <path d="M307.1,510.1h35.5c.6,0,6.2,4.9,6.8,6.2,2.4,5.8,1.1,16.9-6,18.5-10,2.3-41.2,2.5-51.8,1.3-7.5-.9-13.6-7-14.5-14.5,2-18.6-2.7-42.9.2-60.8,2.3-13.9,26-14.5,28.5-3,.5,2.3,1.2,10.2,1.2,12.8,0,2.2-1.1,4-1,6,.4,11.1,1.6,22.3,1,33.5h0Z"/>
  <path d="M561.8,99.8c-5.9,4.8-16-4.3-21.8-7.1-41.9-20-88.4-24.5-134.1-17.4-7.7,1.2-21.5,7.9-27.3,1.8-6.3-6.6-2.7-11,4.6-13.5,47.4-16.5,124.9-8.8,168.3,16.7,5.4,3.2,19.5,12.2,10.4,19.5h0Z"/>
  <path d="M463.8,454.5c2.6,2.6,4.1,9.5,4.4,13.1.8,10,1.3,52.1-1.3,59.8-3.2,9.3-20.5,11.7-25.3,1.8-3.7-7.7-1.4-11.5-1.4-18.5,0-10.5-.1-21,0-31.5-10.4,3.4-18.5-6.9-13.4-15.9,3.9-6.9,30.4-15.4,37.1-8.7h0Z"/>
  <path d="M252.7,292.5c27.3,20.5-6.5,66-34.5,45-31.2-23.4,5.3-67,34.5-45Z"/>
  <path d="M73.7,329.8c-10.1,14.4-32.6,17.4-44.6,3.9-20.6-23.3,7.8-58.1,35.9-42.9,13.7,7.4,17.5,26.5,8.7,39Z"/>
  <path d="M303.1,75.1c16.7-2.1,15.5,15.6,12.5,27-2.3,8.7-5.7,13.5-14.9,8.9-8.3-4.2-3.5-10.3-3.6-17.9-11,6.6-25.9,5.7-19.2-10.7,2.8-6.7,16.3-28.9,23.8-29.3,11.8-.7,5.4,16.6,1.4,22h0Z"/>
  <path d="M516.9,216.4c8.7-.7,29.3-1.4,36.9,1.5,14.4,5.5,13.7,29.8-3.3,32.1-8.7,1.2-30.9,1-40,.1-10.9-1-16.6-13.8-12.8-23.9,3.5-9.2,10.5-9.2,19.1-9.9Z"/>
</svg>