<?xml version="1.0" encoding="UTF-8"?>
<svg id="_图层_2" xmlns="http://www.w3.org/2000/svg" version="1.1" viewBox="0 0 1024.2 390.2">
  <!-- Generator: Adobe Illustrator 29.5.1, SVG Export Plug-In . SVG Version: 2.1.0 Build 141)  -->
  <path d="M382.1,390.1c-19-6.8-25.9-23.2-26.1-42.5-.3-31.2,1.3-62.7,1.1-94.1,0-16.9-4.4-52.9,5.1-66.8,4.1-6,15.1-12.7,22.3-12.7h24.5c-12.2-39.7,38.9-36.4,38-1,13.9.6,31.7-1.5,42.5,9,12.5,12.2,8.6,29.9,8.5,45.4-.2,35,6.9,59.1-36.5,63.5-2.5.2-13.3-1-13.5,1.5-.1,2.8,10.1,16.5,11,20.5,1.5,1,6.1-4.8,7.5-6,10.8-8.9,27.2-20.9,38.5-5.5,12.7,17.4-11.2,26.4-21,35.5,13.9,7.9,37.8,19,27.2,38.7-15.4,28.7-48.4-.5-61.7-15.7-11.3-12.9-19.8-27.1-26-43-1.7-4.4-6.8-23.4-7.8-24.7-.3-.4-4.7-2-6.3-3.2-8.9-6.8-9.6-22.1.1-27.8,8.3-4.9,32.9-.9,43.9-2.1,3.6-.4,5.5-1.7,7-5,2.2-5.2,2.3-33.9,1.3-40.3-.9-5.7-2.9-6.9-8.4-7.6-10-1.2-39.8-1.3-49.6.1-2.3.4-5,.7-6,3-.7,1.6-1.6,10.7-1.8,13.2-1.9,31.8-1.4,74,0,106.1.2,5.4,1.8,11.1,1.2,16.8.4,1.1.9,1.6,2.1,1.5,4-.3,10-4.8,15.2-4.9,10.9-.2,18.6,10.2,17.5,20.6-1.8,15.6-27.5,23.1-40,27.5h-10Z"/>
  <path d="M509.1.1c4.2,1.8,8.5,3.2,12,6.5,20.2,18.6,32.5,89.8,33,117,.2,9.9,0,27.8-13.5,28-6.2.1-14.4-5.3-16-11.4-2.2-8.6.2-25.6-.5-35.5-.7-10.3-3.2-24.4-5.3-34.7-2.8-13.5-7.1-28.1-14.3-39.8-3.4-.8-26.6,22.3-29.9,25.9-12.6,14-21.8,30.2-33.2,44.9-2.6.7-8.8-2.9-11.8-3.9-19.6-6.5-34-9-54.3-3.2-6.4,1.8-27.3,12.6-30.7,12.3-.8,0-1.5-.3-2-1-10.8-17.5-21.6-35.4-34.5-51.5-2.9-3.7-14.5-17.8-17.4-19.6-1-.6-1.5-1.3-2.9-.9-3.8,1.1-14.1,37.1-15.4,42.7-4.9,22.1-6,43.7-4.7,66.3-5.7,15.2-26.1,15.6-28.4-2.7-3.7-29,10.1-98.5,27.1-122.7,6.1-8.8,15.2-14.9,26.4-11.7,12.4,3.5,33.5,26.7,41.9,37.1,8,10.1,14.7,21.3,22.1,31.9,22-14,48-12.6,72.4-6.1,8-14.2,20.2-27.2,32.1-38.5S487.1,5.9,503.1.1h6Z"/>
  <path d="M302.1,390.1h-17c-12-3.9-19.8-17.6-15.3-29.8s16.6-9.3,25.9-13.1c11.9-4.9,13-30.2,14.4-41.1-12.5,8.6-30.8,28.2-45.5,12-12.3-13.5,2.7-25,12.6-32.5,6.7-5.1,26.9-16.6,28-25,.3-2.5-2.2-20.9-3.1-21.6-12.2,7.6-29,23.2-41,6.5-4.3-5.9-5.2-11.8-1.3-18.2,3.7-6.1,25.6-20.2,26.1-22.9.8-4-19.3-18.3-19.9-25.9-1.1-13.1,14.3-22.4,26.1-17.1,7.8,3.5,10.6,12.2,17.9,15.6,5.6-13.6,17.7-25.8,32.5-15,19.7,14.4-4.3,36.4-12.1,50.5,12.5,23.9,16.9,49.3,17.7,76,.7,23.4.6,55.8-10.3,76.7-7.5,14.3-20.5,21-35.7,24.8h0Z"/>
  <path d="M.1,363.1c2.8-10.2,9.4-12.6,18.5-16,26.5-9.9,61.5-16,75-45,7-14.9,3.5-44.5,28.8-38.8,13.5,3,12.2,21.6,13.8,31.2,3.7,21.3,34.3,36.1,52.9,42.1,10.8,3.5,37.9,7.1,44.5,14.5,10.4,11.5,1.2,33-12.5,36.6-16.5,4.3-51.9-9.9-66.7-18.4-14.9-8.5-27.4-19-38.3-32.2-19.5,30.1-56.4,42.5-89,53h-9c-9.2-3.4-14.9-8.5-18-18v-9h0Z"/>
  <path d="M1024.1,207.1v140c-4.3,16.4-20.3,24.3-36.2,17.7-10.3-4.3-13.5-14.7-13.8-25.2-.1-4.1,1.1-7.5,1.1-11,.1-30.5-.2-61,0-91.5-10.1,5.9-25.9,9.2-32.2-3.3-11.7-23.3,12.5-31.5,29.2-38.2,15.3-6.1,35.2-14.8,47.8,1.1l4.2,10.3h0Z"/>
  <path d="M905.7,350.7c-25,25.9-74.1,23-94-7.7-19.5-30.2-20.9-104.5,1.4-133.4,26-33.7,86.2-29.2,104.7,10.2,15.6,33.2,14.5,103.1-12.2,130.8h0ZM861.6,229.6c-5.1.7-10.9,4.7-13,9.5-5.1,11.8-5.2,63.8-.8,75.8,5,13.8,19.5,15.6,26.2,1.6s6.2-48.9,4-64.8c-1.2-9.2-4.2-23.8-16.4-22.1h0Z"/>
  <path d="M615,336.3l-43.3.8c-3.2,20.9-16.3,37.7-39.1,28.1-12.8-5.4-15.9-17.3-12.7-29.8,10.6-41.7,30.5-84.4,41.8-126.2,8.1-24.7,47.2-28.4,59.7-5.7,13.2,41.9,35.5,89,44.3,131.7,3.1,14.8,0,27.5-16.3,31.7-22.1,5.8-30.2-12.8-34.4-30.6h0ZM605.1,295.1l-11.5-44-12.5,44h24Z"/>
  <path d="M172.8,222.8c7.1-6.9,6.9-31.4,1.6-39.4-2.1-3.3-7.2-4-10.8-4.3-41.5-3.5-87.9,2.8-129.9,0-21.2-3.4-20.2-30.9.9-33.9,47.2,2.3,97.2-3,144,0,16.1,1,31.9,7.2,37.2,23.8,3.5,11.2,3.7,53.7.8,65.3-3.9,16-20.2,22.1-35,23-46.9,2.9-96.8-2.3-144.1,0-11.2-.5-19.4-9.1-15.5-20.6,4.7-13.8,26.7-9,38.6-9.4,27.6-.9,54.6-.2,82,0,7.1,0,25.3.3,30.1-4.4h0Z"/>
  <path d="M722.8,193.5c4.2,3.9,6,10.6,6.4,16.1l.2,108.8c.3.9,1,1.8,1.8,2.2,4.6,2.2,34-.4,42.4.6,26.5,3,25.8,42.5-2.9,44.9-15.2,1.3-53.3,1.8-67.8-.3-9.8-1.4-20.2-9.7-22.3-19.7-2.8-13.6-.3-42.2-.4-57.6s.1-30.6,0-46c0-12.6-3.1-26,.4-38.5,4.9-17.2,30.2-21.8,42.2-10.6h0Z"/>
  <path d="M645.9,57.4c34.8-2,91.3,7.6,120.1,28.3,5.6,4,11,12.8,4.6,18.5-8,7.1-15.8-3.8-22.5-7.6-35.4-19.7-89.7-23.3-129.1-17-10.9,1.8-27.2,7.7-36.8,8.3-11,.7-15.3-12-2.9-18,14.8-7.1,49.7-11.6,66.5-12.5h0Z"/>
  <path d="M51.9,188.4c32.4-3.4,69.7,1.9,102.6-.2,18.1.4,19.1,27.3,1.1,28.9-34.5-2.9-75.2,3.8-108.9-.1-8.7-1-12.6-6.6-11.5-15.3,1.1-9.4,8.3-12.4,16.7-13.3h0Z"/>
  <path d="M190.9,272.4c22.3-3.7,35.1,21.5,21.3,39.3-18.6,23.8-56.3-2.9-36.4-29.4,3.3-4.4,9.7-8.9,15.1-9.9h0Z"/>
  <path d="M22.4,312.8c-21.4-24.7,18.5-58.1,39.1-28.6,15.7,22.5-21,49.5-39.1,28.6Z"/>
  <path d="M495.1,84.1c14.5.8,15.3,15.8,12.7,27.2-2.2,9.6-7.3,19.3-18,11.7-6.9-4.8-1.9-12-2.7-18.8-6.5,4.7-22.7,6.9-23-4.5-.2-6.4,18.4-36.3,24.3-38.8,9.6-3.9,13,5.2,11.3,13.3-.8,3.9-4,6.2-4.5,9.9h0Z"/>
  <path d="M413.9,218.4c7.9-1.1,24.7-.6,32.7.8,11.3,1.9,12.9,21.1,3.5,26.4-3.8,2.1-24,2.7-29.5,2.6-8.1-.2-17-.7-19-9.9-2.1-9.9,1.9-18.3,12.3-19.8h0Z"/>
</svg>